<svg width="1440" height="301" viewBox="0 0 1440 301" version="1.1" xmlns="http://www.w3.org/2000/svg" xmlns:xlink="http://www.w3.org/1999/xlink">
<g fill="none">
<path fill-rule="evenodd" clip-rule="evenodd" d="M 0 0L 0 300.169L 0 301L 0.892532 300.368C 19.8592 285.849 53.7076 273.151 98.8557 262.274C 143.99 251.4 200.359 242.36 264.301 235.135C 392.182 220.685 550.3 213.502 709.3 213.416C 868.299 213.331 1028.16 220.343 1159.53 234.279C 1225.21 241.247 1283.76 249.944 1331.51 260.348C 1379.28 270.755 1417.55 287.238 1440 301L 1440 0L 0 0ZM 0 300.169C 19.2896 285.805 53.9873 272.409 98.494 261.687C 143.709 250.794 200.144 241.745 264.122 234.516C 392.078 220.058 550.259 212.873 709.299 212.787C 868.34 212.702 1028.26 219.715 1159.7 233.659C 1225.41 240.63 1284.02 249.335 1331.84 259.755C 1379.41 270.118 1417.36 287.23 1440 301L 1440 0L 0 0L 0 300.169Z" fill="url(#paint0_linear)"/>
<path d="M 0 300.169C 19.2896 285.805 53.9873 272.409 98.494 261.687C 143.709 250.794 200.144 241.745 264.122 234.516C 392.078 220.058 550.259 212.873 709.299 212.787C 868.34 212.702 1028.26 219.715 1159.7 233.659C 1225.41 240.63 1284.02 249.335 1331.84 259.755C 1379.41 270.118 1417.36 287.23 1440 301L 1440 0L 0 0L 0 300.169Z" fill="url(#paint1_linear)"/>
<g filter="url(#filter0_d)">
<path d="M 27 28.5C 27 35.9558 20.9558 42 13.5 42C 6.04416 42 0 35.9558 0 28.5C 0 21.0442 6.04416 15 13.5 15C 20.9558 15 27 21.0442 27 28.5Z" transform="translate(821 37)" fill="white"/>
<path d="M 40.8 17.1C 40.8 24.5558 34.7558 30.6 27.3 30.6C 19.8442 30.6 13.8 24.5558 13.8 17.1C 13.8 9.64416 19.8442 3.6 27.3 3.6C 34.7558 3.6 40.8 9.64416 40.8 17.1Z" transform="translate(821 37)" fill="white"/>
<path d="M 46.2 30.3C 46.2 37.7558 40.1558 43.8 32.7 43.8C 25.2442 43.8 19.2 37.7558 19.2 30.3C 19.2 22.8442 25.2442 16.8 32.7 16.8C 40.1558 16.8 46.2 22.8442 46.2 30.3Z" transform="translate(821 37)" fill="white"/>
<path d="M 60 21.9C 60 29.3558 53.9558 35.4 46.5 35.4C 39.0442 35.4 33 29.3558 33 21.9C 33 14.4442 39.0442 8.4 46.5 8.4C 53.9558 8.4 60 14.4442 60 21.9Z" transform="translate(821 37)" fill="white"/>
<path d="M 52.2 13.5C 52.2 20.9558 46.1558 27 38.7 27C 31.2442 27 25.2 20.9558 25.2 13.5C 25.2 6.04416 31.2442 0 38.7 0C 46.1558 0 52.2 6.04416 52.2 13.5Z" transform="translate(821 37)" fill="white"/>
</g>
<g filter="url(#filter1_d)">
<path d="M 27 28.5C 27 35.9558 20.9558 42 13.5 42C 6.04416 42 0 35.9558 0 28.5C 0 21.0442 6.04416 15 13.5 15C 20.9558 15 27 21.0442 27 28.5Z" transform="translate(551 99)" fill="white"/>
<path d="M 40.8 17.1C 40.8 24.5558 34.7558 30.6 27.3 30.6C 19.8442 30.6 13.8 24.5558 13.8 17.1C 13.8 9.64416 19.8442 3.6 27.3 3.6C 34.7558 3.6 40.8 9.64416 40.8 17.1Z" transform="translate(551 99)" fill="white"/>
<path d="M 46.2 30.3C 46.2 37.7558 40.1558 43.8 32.7 43.8C 25.2442 43.8 19.2 37.7558 19.2 30.3C 19.2 22.8442 25.2442 16.8 32.7 16.8C 40.1558 16.8 46.2 22.8442 46.2 30.3Z" transform="translate(551 99)" fill="white"/>
<path d="M 60 21.9C 60 29.3558 53.9558 35.4 46.5 35.4C 39.0442 35.4 33 29.3558 33 21.9C 33 14.4442 39.0442 8.4 46.5 8.4C 53.9558 8.4 60 14.4442 60 21.9Z" transform="translate(551 99)" fill="white"/>
<path d="M 52.2 13.5C 52.2 20.9558 46.1558 27 38.7 27C 31.2442 27 25.2 20.9558 25.2 13.5C 25.2 6.04416 31.2442 0 38.7 0C 46.1558 0 52.2 6.04416 52.2 13.5Z" transform="translate(551 99)" fill="white"/>
</g>
<g filter="url(#filter2_d)">
<path d="M 27 28.5C 27 35.9558 20.9558 42 13.5 42C 6.04416 42 0 35.9558 0 28.5C 0 21.0442 6.04416 15 13.5 15C 20.9558 15 27 21.0442 27 28.5Z" transform="translate(1000 110)" fill="white"/>
<path d="M 40.8 17.1C 40.8 24.5558 34.7558 30.6 27.3 30.6C 19.8442 30.6 13.8 24.5558 13.8 17.1C 13.8 9.64416 19.8442 3.6 27.3 3.6C 34.7558 3.6 40.8 9.64416 40.8 17.1Z" transform="translate(1000 110)" fill="white"/>
<path d="M 46.2 30.3C 46.2 37.7558 40.1558 43.8 32.7 43.8C 25.2442 43.8 19.2 37.7558 19.2 30.3C 19.2 22.8442 25.2442 16.8 32.7 16.8C 40.1558 16.8 46.2 22.8442 46.2 30.3Z" transform="translate(1000 110)" fill="white"/>
<path d="M 60 21.9C 60 29.3558 53.9558 35.4 46.5 35.4C 39.0442 35.4 33 29.3558 33 21.9C 33 14.4442 39.0442 8.4 46.5 8.4C 53.9558 8.4 60 14.4442 60 21.9Z" transform="translate(1000 110)" fill="white"/>
<path d="M 52.2 13.5C 52.2 20.9558 46.1558 27 38.7 27C 31.2442 27 25.2 20.9558 25.2 13.5C 25.2 6.04416 31.2442 0 38.7 0C 46.1558 0 52.2 6.04416 52.2 13.5Z" transform="translate(1000 110)" fill="white"/>
</g>
<g filter="url(#filter3_d)">
<path d="M 27 28.5C 27 35.9558 20.9558 42 13.5 42C 6.04416 42 0 35.9558 0 28.5C 0 21.0442 6.04416 15 13.5 15C 20.9558 15 27 21.0442 27 28.5Z" transform="translate(96 139)" fill="white"/>
<path d="M 40.8 17.1C 40.8 24.5558 34.7558 30.6 27.3 30.6C 19.8442 30.6 13.8 24.5558 13.8 17.1C 13.8 9.64416 19.8442 3.6 27.3 3.6C 34.7558 3.6 40.8 9.64416 40.8 17.1Z" transform="translate(96 139)" fill="white"/>
<path d="M 46.2 30.3C 46.2 37.7558 40.1558 43.8 32.7 43.8C 25.2442 43.8 19.2 37.7558 19.2 30.3C 19.2 22.8442 25.2442 16.8 32.7 16.8C 40.1558 16.8 46.2 22.8442 46.2 30.3Z" transform="translate(96 139)" fill="white"/>
<path d="M 60 21.9C 60 29.3558 53.9558 35.4 46.5 35.4C 39.0442 35.4 33 29.3558 33 21.9C 33 14.4442 39.0442 8.4 46.5 8.4C 53.9558 8.4 60 14.4442 60 21.9Z" transform="translate(96 139)" fill="white"/>
<path d="M 52.2 13.5C 52.2 20.9558 46.1558 27 38.7 27C 31.2442 27 25.2 20.9558 25.2 13.5C 25.2 6.04416 31.2442 0 38.7 0C 46.1558 0 52.2 6.04416 52.2 13.5Z" transform="translate(96 139)" fill="white"/>
</g>
<g filter="url(#filter4_d)">
<path d="M 27 28.5C 27 35.9558 20.9558 42 13.5 42C 6.04416 42 0 35.9558 0 28.5C 0 21.0442 6.04416 15 13.5 15C 20.9558 15 27 21.0442 27 28.5Z" transform="translate(310 30)" fill="white"/>
<path d="M 40.8 17.1C 40.8 24.5558 34.7558 30.6 27.3 30.6C 19.8442 30.6 13.8 24.5558 13.8 17.1C 13.8 9.64416 19.8442 3.6 27.3 3.6C 34.7558 3.6 40.8 9.64416 40.8 17.1Z" transform="translate(310 30)" fill="white"/>
<path d="M 46.2 30.3C 46.2 37.7558 40.1558 43.8 32.7 43.8C 25.2442 43.8 19.2 37.7558 19.2 30.3C 19.2 22.8442 25.2442 16.8 32.7 16.8C 40.1558 16.8 46.2 22.8442 46.2 30.3Z" transform="translate(310 30)" fill="white"/>
<path d="M 60 21.9C 60 29.3558 53.9558 35.4 46.5 35.4C 39.0442 35.4 33 29.3558 33 21.9C 33 14.4442 39.0442 8.4 46.5 8.4C 53.9558 8.4 60 14.4442 60 21.9Z" transform="translate(310 30)" fill="white"/>
<path d="M 52.2 13.5C 52.2 20.9558 46.1558 27 38.7 27C 31.2442 27 25.2 20.9558 25.2 13.5C 25.2 6.04416 31.2442 0 38.7 0C 46.1558 0 52.2 6.04416 52.2 13.5Z" transform="translate(310 30)" fill="white"/>
</g>
<g filter="url(#filter5_d)">
<path d="M 27 28.5C 27 35.9558 20.9558 42 13.5 42C 6.04416 42 0 35.9558 0 28.5C 0 21.0442 6.04416 15 13.5 15C 20.9558 15 27 21.0442 27 28.5Z" transform="translate(1265 62)" fill="white"/>
<path d="M 40.8 17.1C 40.8 24.5558 34.7558 30.6 27.3 30.6C 19.8442 30.6 13.8 24.5558 13.8 17.1C 13.8 9.64416 19.8442 3.6 27.3 3.6C 34.7558 3.6 40.8 9.64416 40.8 17.1Z" transform="translate(1265 62)" fill="white"/>
<path d="M 46.2 30.3C 46.2 37.7558 40.1558 43.8 32.7 43.8C 25.2442 43.8 19.2 37.7558 19.2 30.3C 19.2 22.8442 25.2442 16.8 32.7 16.8C 40.1558 16.8 46.2 22.8442 46.2 30.3Z" transform="translate(1265 62)" fill="white"/>
<path d="M 60 21.9C 60 29.3558 53.9558 35.4 46.5 35.4C 39.0442 35.4 33 29.3558 33 21.9C 33 14.4442 39.0442 8.4 46.5 8.4C 53.9558 8.4 60 14.4442 60 21.9Z" transform="translate(1265 62)" fill="white"/>
<path d="M 52.2 13.5C 52.2 20.9558 46.1558 27 38.7 27C 31.2442 27 25.2 20.9558 25.2 13.5C 25.2 6.04416 31.2442 0 38.7 0C 46.1558 0 52.2 6.04416 52.2 13.5Z" transform="translate(1265 62)" fill="white"/>
</g>
</g>
<defs>
<filter id="filter0_d" x="817" y="37" width="68" height="51.8" filterUnits="userSpaceOnUse" color-interpolation-filters="sRGB">
<feFlood flood-opacity="0" result="BackgroundImageFix"/>
<feColorMatrix in="SourceAlpha" type="matrix" values="0 0 0 0 0 0 0 0 0 0 0 0 0 0 0 0 0 0 255 0"/>
<feOffset dy="4"/>
<feGaussianBlur stdDeviation="2"/>
<feColorMatrix type="matrix" values="0 0 0 0 0 0 0 0 0 0 0 0 0 0 0 0 0 0 0.25 0"/>
<feBlend mode="normal" in2="BackgroundImageFix" result="effect1_dropShadow"/>
<feBlend mode="normal" in="SourceGraphic" in2="effect1_dropShadow" result="shape"/>
</filter>
<filter id="filter1_d" x="547" y="99" width="68" height="51.8" filterUnits="userSpaceOnUse" color-interpolation-filters="sRGB">
<feFlood flood-opacity="0" result="BackgroundImageFix"/>
<feColorMatrix in="SourceAlpha" type="matrix" values="0 0 0 0 0 0 0 0 0 0 0 0 0 0 0 0 0 0 255 0"/>
<feOffset dy="4"/>
<feGaussianBlur stdDeviation="2"/>
<feColorMatrix type="matrix" values="0 0 0 0 0 0 0 0 0 0 0 0 0 0 0 0 0 0 0.25 0"/>
<feBlend mode="normal" in2="BackgroundImageFix" result="effect1_dropShadow"/>
<feBlend mode="normal" in="SourceGraphic" in2="effect1_dropShadow" result="shape"/>
</filter>
<filter id="filter2_d" x="996" y="110" width="68" height="51.8" filterUnits="userSpaceOnUse" color-interpolation-filters="sRGB">
<feFlood flood-opacity="0" result="BackgroundImageFix"/>
<feColorMatrix in="SourceAlpha" type="matrix" values="0 0 0 0 0 0 0 0 0 0 0 0 0 0 0 0 0 0 255 0"/>
<feOffset dy="4"/>
<feGaussianBlur stdDeviation="2"/>
<feColorMatrix type="matrix" values="0 0 0 0 0 0 0 0 0 0 0 0 0 0 0 0 0 0 0.25 0"/>
<feBlend mode="normal" in2="BackgroundImageFix" result="effect1_dropShadow"/>
<feBlend mode="normal" in="SourceGraphic" in2="effect1_dropShadow" result="shape"/>
</filter>
<filter id="filter3_d" x="92" y="139" width="68" height="51.8" filterUnits="userSpaceOnUse" color-interpolation-filters="sRGB">
<feFlood flood-opacity="0" result="BackgroundImageFix"/>
<feColorMatrix in="SourceAlpha" type="matrix" values="0 0 0 0 0 0 0 0 0 0 0 0 0 0 0 0 0 0 255 0"/>
<feOffset dy="4"/>
<feGaussianBlur stdDeviation="2"/>
<feColorMatrix type="matrix" values="0 0 0 0 0 0 0 0 0 0 0 0 0 0 0 0 0 0 0.25 0"/>
<feBlend mode="normal" in2="BackgroundImageFix" result="effect1_dropShadow"/>
<feBlend mode="normal" in="SourceGraphic" in2="effect1_dropShadow" result="shape"/>
</filter>
<filter id="filter4_d" x="306" y="30" width="68" height="51.8" filterUnits="userSpaceOnUse" color-interpolation-filters="sRGB">
<feFlood flood-opacity="0" result="BackgroundImageFix"/>
<feColorMatrix in="SourceAlpha" type="matrix" values="0 0 0 0 0 0 0 0 0 0 0 0 0 0 0 0 0 0 255 0"/>
<feOffset dy="4"/>
<feGaussianBlur stdDeviation="2"/>
<feColorMatrix type="matrix" values="0 0 0 0 0 0 0 0 0 0 0 0 0 0 0 0 0 0 0.25 0"/>
<feBlend mode="normal" in2="BackgroundImageFix" result="effect1_dropShadow"/>
<feBlend mode="normal" in="SourceGraphic" in2="effect1_dropShadow" result="shape"/>
</filter>
<filter id="filter5_d" x="1261" y="62" width="68" height="51.8" filterUnits="userSpaceOnUse" color-interpolation-filters="sRGB">
<feFlood flood-opacity="0" result="BackgroundImageFix"/>
<feColorMatrix in="SourceAlpha" type="matrix" values="0 0 0 0 0 0 0 0 0 0 0 0 0 0 0 0 0 0 255 0"/>
<feOffset dy="4"/>
<feGaussianBlur stdDeviation="2"/>
<feColorMatrix type="matrix" values="0 0 0 0 0 0 0 0 0 0 0 0 0 0 0 0 0 0 0.25 0"/>
<feBlend mode="normal" in2="BackgroundImageFix" result="effect1_dropShadow"/>
<feBlend mode="normal" in="SourceGraphic" in2="effect1_dropShadow" result="shape"/>
</filter>

<linearGradient id="paint0_linear" x2="1" gradientUnits="userSpaceOnUse" gradientTransform="matrix(2994.08 1205.31 -11800.6 18528.5 5409.47 -9969.42)">
<stop stop-color="#4FC3F7"/>
<stop offset="0.803255" stop-color="#7FECFD" stop-opacity="0.686731"/>
<stop offset="1" stop-color="#8BF6FF" stop-opacity="0.61"/>
</linearGradient>
<linearGradient id="paint1_linear" x2="1" gradientUnits="userSpaceOnUse" gradientTransform="matrix(2994.08 1205.31 -11800.6 18528.5 5409.47 -9969.42)">
<stop stop-color="#4FC3F7"/>
<stop offset="0.803255" stop-color="#7FECFD" stop-opacity="0.686731"/>
<stop offset="1" stop-color="#8BF6FF" stop-opacity="0.61"/>
</linearGradient>

</defs>
</svg>

