<svg width="296" height="138" viewBox="0 0 296 138" version="1.1" xmlns="http://www.w3.org/2000/svg" xmlns:xlink="http://www.w3.org/1999/xlink">
<title>StepBoxTriangle</title>
<g id="Canvas" transform="translate(145 -1620)">
<g id="StepBoxTriangle">
<g id="Rectangle">
<use xlink:href="#path0_fill" transform="translate(-145 1620.25)" fill="#A8D586"/>
</g>
<g id="Polygon">
<use xlink:href="#path1_fill" transform="matrix(2.21344e-16 1 -1 2.21344e-16 153 1602)" fill="#A8D586"/>
</g>
</g>
</g>
<defs>
<path id="path0_fill" d="M 0 6C 0 2.68629 2.68629 0 6 0L 220 0C 223.314 0 226 2.68629 226 6L 226 131.5C 226 134.814 223.314 137.5 220 137.5L 6 137.5C 2.68629 137.5 0 134.814 0 131.5L 0 6Z"/>
<path id="path1_fill" d="M 82.5696 4.8512C 84.9488 2.24607 89.0513 2.24607 91.4304 4.85121L 153.169 72.4539C 156.686 76.3049 153.954 82.5 148.739 82.5L 25.261 82.5C 20.0457 82.5 17.3136 76.3049 20.8306 72.4538L 82.5696 4.8512Z"/>
</defs>
</svg>
