<?xml version="1.0" encoding="utf-8"?>
<!-- Generator: Adobe Illustrator 20.1.0, SVG Export Plug-In . SVG Version: 6.00 Build 0)  -->
<svg version="1.1" id="Layer_1" xmlns="http://www.w3.org/2000/svg" xmlns:xlink="http://www.w3.org/1999/xlink" x="0px" y="0px"
	 viewBox="0 0 288.4 164.7" style="enable-background:new 0 0 288.4 164.7;" xml:space="preserve">
<style type="text/css">
	.st0{fill:#F79622;}
	.st1{fill:#FED402;}
</style>
<g>
	<g>
		<path class="st0" d="M0,96.4v-5.2h6v3.5c0,3.1,1.2,4.7,3.5,4.7c2.6,0,4-1.7,4-5c0-2-0.3-3.5-0.9-4.6c-0.7-1.4-2.6-3.6-5.5-6.5
			c-2.4-2.4-4-4.3-5-5.8c-1.4-2.3-2-4.7-2-7.4c0-6.8,3.3-10.1,9.8-10.1c3,0,5.3,0.8,7,2.4c1.2,1.1,1.7,2.9,1.7,5.5v4.1H13v-3.4
			c0-2.6-1.1-3.9-3.4-3.9c-2.4,0-3.6,1.6-3.6,4.7c0,1.6,0.3,3,1,4.2c0.8,1.5,2.6,3.6,5.2,6.3c2.9,3.1,4.8,5.4,5.7,7.1
			c0.9,1.6,1.3,3.8,1.3,6.4c0,7.1-3.3,10.7-9.8,10.7C3.1,104.2,0,101.6,0,96.4z"/>
		<path class="st0" d="M43,60.5V94c0,6.8-3.4,10.1-10.1,10.1c-6.8,0-10.2-3.4-10.2-10.1V60.5h6v34.6c0,3,1.4,4.4,4.2,4.4
			c2.8,0,4.1-1.5,4.1-4.4V60.5H43z"/>
		<path class="st0" d="M47.3,103.8V60.5h8.3l7.1,36v-36h5.6v43.3h-8.7l-7.1-37v37H47.3z"/>
		<path class="st0" d="M72.8,103.8V60.5h8.3l7.1,36v-36H94v43.3h-8.7l-7.1-37v37H72.8z"/>
		<path class="st0" d="M105.4,86.1l-8.3-25.6h6l5.2,18.2h0.1l6-18.2h5.3l-8.3,25.6v17.8h-6V86.1z"/>
	</g>
	<g>
		<path class="st0" d="M176.7,96.4v-5.2h6v3.5c0,3.1,1.2,4.7,3.5,4.7c2.6,0,4-1.7,4-5c0-2-0.3-3.5-0.9-4.6c-0.7-1.4-2.6-3.6-5.5-6.5
			c-2.4-2.4-4-4.3-5-5.8c-1.4-2.3-2-4.7-2-7.4c0-6.8,3.3-10.1,9.8-10.1c3,0,5.3,0.8,7,2.4c1.2,1.1,1.7,2.9,1.7,5.5v4.1h-5.6v-3.4
			c0-2.6-1.1-3.9-3.4-3.9c-2.4,0-3.6,1.6-3.6,4.7c0,1.6,0.3,3,1,4.2c0.8,1.5,2.6,3.6,5.2,6.3c2.9,3.1,4.8,5.4,5.7,7.1
			c0.9,1.6,1.3,3.8,1.3,6.4c0,7.1-3.3,10.7-9.8,10.7C179.8,104.2,176.7,101.6,176.7,96.4z"/>
		<path class="st0" d="M199.3,93.4V71.5c0-7.6,3.4-11.4,10.1-11.4c3.7,0,6.4,0.9,8,2.8c1.5,1.7,2.2,4.4,2.2,7.9v21.9
			c0,7.6-3.4,11.4-10.2,11.4c-3.7,0-6.3-1-7.9-2.9C200.1,99.6,199.3,97,199.3,93.4z M205.3,71.1v22.7c0,3.8,1.4,5.7,4.1,5.7
			c2.8,0,4.2-1.9,4.2-5.7V71.1c0-4.2-1.4-6.2-4.2-6.2C206.7,64.8,205.3,66.9,205.3,71.1z"/>
		<path class="st0" d="M223.9,103.8V60.5h6v38.3H240v5H223.9z"/>
		<path class="st0" d="M241.3,103.8l9.5-43.3h7l8.8,43.3h-6l-2-11h-9.4l-2,11H241.3z M253.9,66.9l-3.8,20.9h7.6l-3.7-20.9H253.9z"/>
		<path class="st0" d="M269.5,103.8V60.5h9.3c4.2,0,6.9,0.8,8.1,2.3c1,1.4,1.6,4.6,1.6,9.5c0,3.1-0.3,5.3-1,6.5
			c-0.8,1.5-2.3,2.6-4.7,3.3v0.1c2,0.2,3.4,0.8,4.2,1.9c0.8,1.1,1.2,2.6,1.2,4.7v9.4c0,2.5,0.1,4.3,0.2,5.5h-5.5
			c-0.5-0.9-0.7-2.2-0.7-3.9v-9.8c0-2.1-0.3-3.5-0.9-4.1c-0.6-0.7-1.9-1-3.8-1h-2v18.8H269.5z M275.5,65.5v14.4h1.6
			c2.4,0,3.8-0.4,4.5-1.3c0.6-0.8,0.9-2.9,0.9-6.1c0-3.2-0.2-5.2-0.6-5.9c-0.4-0.7-1.6-1.1-3.5-1.1H275.5z"/>
	</g>
	<g>
		<path class="st0" d="M134.6,111V52.6h14.1c4.8,0,8,1,9.5,3.1c1.4,1.8,2.1,5.5,2.1,11.1c0,5.5-0.5,9.2-1.6,11.1
			c-0.9,1.6-2.8,2.6-5.7,3V81c3.2,0.6,5.3,1.7,6.3,3.4c1,1.7,1.5,5,1.5,10c0,6.6-0.8,11-2.3,13c-1.8,2.4-5.5,3.6-11.2,3.6H134.6z
			 M142.7,58.9v18.8h4.7c2.4,0,3.9-0.6,4.5-1.7c0.6-1.1,0.8-4.1,0.8-8.9c0-3.3-0.4-5.6-1.2-6.6c-0.8-1.1-2.5-1.6-5.1-1.6H142.7z
			 M142.7,84v20.7h5c2.8,0,4.5-1.2,5.1-3.6c0.2-0.8,0.3-3.2,0.3-7c0-3.7-0.1-6-0.3-6.7c-0.6-2.3-2.2-3.4-4.9-3.4H142.7z"/>
	</g>
	<path class="st1" d="M114.1,111c0,0,12,16,33,16s33.7-16,33.7-16l20.3,20.7c0,0-19.7-10-22-7.7c-2.3,2.3,8,29.7,8,29.7
		S167,132,164.1,134s0,30.7,0,30.7s-13-27.7-17-27.7s-13,27.7-13,27.7s0.3-29.3-3-30.7c-3.3-1.3-20.3,19.7-20.3,19.7
		s10.3-27.7,7.3-29.7s-21.8,7.7-21.8,7.7L114.1,111z"/>
	<path class="st1" d="M180.8,53.7c0,0-12-16-33-16s-33.7,16-33.7,16L93.8,33c0,0,19.7,10,22,7.7c2.3-2.3-8-29.7-8-29.7
		s20.1,21.7,23,19.7s0-30.7,0-30.7s13,27.7,17,27.7s13-27.7,13-27.7s-0.3,29.3,3,30.7C167.2,32,184.2,11,184.2,11
		s-10.3,27.7-7.3,29.7s21.8-7.7,21.8-7.7L180.8,53.7z"/>
</g>
</svg>
